<?xml version="1.0" encoding="UTF-8"?>
<svg id="Calque_1" data-name="Calque 1" xmlns="http://www.w3.org/2000/svg" viewBox="0 0 937.29 299.42">
  <defs>
    <style>
      .cls-1 {
        fill: #223d65;
      }
    </style>
  </defs>
  <path class="cls-1" d="M367.33,69.44c-4.51,0-8.26,2.61-8.26,7.46l.04,139.58,15.9.18c8.22-.87,16.13-7.12,16.18-16.06l.22-45.75,62.5-.14c3.77,0,6.14-7.1,6.12-10.02l-.09-16.24h-68.64s.13-32.68.13-32.68l65.74-.05c11.21,0,16.34-15.7,16.02-26.22l-105.85-.06Z"/>
  <path class="cls-1" d="M813.33,116.38c-14.22-3.73-29.68-2.42-42.97,4.31-23.55,11.92-30.37,43.34-21.69,67.47,4.14,11.53,13.04,20.61,24.17,25.26,18.48,7.71,49.35,6.52,66.88-3.22l-.18-21.74c-14.69,7.4-29.32,11.16-44.79,7.82-10.89-2.35-19.51-10.12-20.21-21.64l69.7.03c4.35-24.67-4.72-51.41-30.91-58.29ZM817.38,156.23l-42.41.1c.11-13.08,11.33-22.28,24.34-21.4,11.53.79,19.08,9.66,18.07,21.3Z"/>
  <path class="cls-1" d="M602.51,114.49c-14.6-.42-26.8,4.58-36.27,16.49l-.56-14.07-28.48.18.03,99.28,29.33-.07.96-61.83c.14-8.79,11.02-15.58,18.83-16.34,11.77-1.14,19.22,6.61,19.3,17.18l.5,61.05,29.35-.21-.56-71.83c-.14-17.77-15.99-29.37-32.44-29.83Z"/>
  <path class="cls-1" d="M712.47,159.61l-25.55-8.63c-2.69-.91-5.42-4.45-5.55-6.67-.17-2.87,1.73-6.38,4.7-7.5,13.36-5.04,28.95.7,42.99,7.07l.17-21.42c-17.53-8.75-38.3-10.57-56.84-4.14-13.96,4.85-21.77,17.29-19.51,31.5,4.94,31.11,54.81,22.96,52.94,40.36-1.02,9.46-18.09,8.4-25.43,7.17-9.8-1.64-18.01-5.59-27.27-10.23l.12,23.52c20.53,10.08,64.11,13.74,77.2-7.88,5.55-9.17,5.97-21.83-.2-30.76-4.1-5.93-11.03-10.12-17.76-12.39Z"/>
  <path class="cls-1" d="M926.26,192.35c-8.48,2.49-12.6,3.59-19.06,3.38-5.7-.76-10.7-4.61-10.69-11.01l.06-46.84,29.22.02.07-20.99-29.11-.12-.49-32.94-29.34,15.79-.19,17.03-15.64.52.17,20.32,15.42.72.44,53.38c.1,12.37,8.15,22.01,19.82,24.93,13.33,3.33,27.13,2.28,39.65-3.18l-.3-21Z"/>
  <rect class="cls-1" x="485.43" y="116.87" width="29.9" height="99.57"/>
  <path class="cls-1" d="M499.31,71.54c-9.73.56-16.66,7.21-16,17.04.6,8.92,6.98,14.21,16.45,14.64,11.1.5,18.53-6.66,17.9-16.84-.59-9.55-8.32-15.41-18.35-14.84Z"/>
  <path class="cls-1" d="M256.78,62.35c-25.53-31.11-64.3-50.99-107.65-50.99C72.44,11.36,10.05,73.58,10.05,150.07s62.39,138.71,139.07,138.71c45.54,0,86.04-21.94,111.42-55.79,17.56-23.1,27.99-51.83,27.99-82.95,0-33.28-11.93-63.85-31.76-87.7ZM261.15,106.35h-50.92c-10.85,0-19.67,8.83-19.67,19.67,0,11.63,9.46,21.08,21.08,21.08h57.85c.02.98.04,1.96.04,2.94,0,5.23-.35,10.39-1.01,15.45h-57.3c-10.85,0-19.67,8.83-19.67,19.67,0,2.77.55,5.41,1.53,7.83-.96.33-1.93.66-2.92,1-20.25,6.96-47.77,16.41-65.26,15.58-.2-.47-.41-.93-.62-1.39.27-1.41.41-2.87.41-4.36,0-12.89-10.49-23.38-23.38-23.38-.81,0-1.6.04-2.39.12-2.26-10.06-3.84-22.86-3.37-33.02,4.72-.32,9.07-1.97,12.67-4.57,4.18,2.34,11.95,5.37,25.83,7.28-.03.49-.05.99-.05,1.48,0,13.72,11.16,24.88,24.88,24.88s24.88-11.16,24.88-24.88-11.16-24.88-24.88-24.88c-9.3,0-17.42,5.13-21.69,12.71-11.44-1.45-18.04-3.61-21.58-5.19,1.64-3.21,2.57-6.84,2.57-10.67,0-.19-.01-.38-.01-.56l122.71-50.22c8.49,9.87,15.39,21.13,20.29,33.39ZM30.15,150.05c0-18.89,4.47-36.76,12.39-52.63,4.24,9.67,10.97,16.69,16.62,22.57,5.26,5.48,9.42,9.8,9.15,13.79-.17,2.5-2.12,5.2-5.96,8.24-12.99,10.29-20.92,21.86-28.96,35.57-2.12-8.84-3.25-18.06-3.25-27.54ZM51.76,82c20.46-28.99,53.59-48.53,91.35-50.62-38.99,22.99-47.34,46.75-52.99,62.84-.8,2.29-1.55,4.42-2.31,6.37-7.83,1.97-14.14,7.67-16.86,15.04-.24.04-.47.07-.72.11-8.59-5.92-20.65-21.95-18.47-33.74ZM225.34,57.89c.01.06.03.11.05.17,1.2,5.1-2.89,15.14-40.43,27.77,1.41-23.44-8.08-42.77-14.17-52.58,1.3.14,3.08.41,5.19.81,18.4,4.09,35.22,12.39,49.36,23.84ZM124.84,222.73c5.62-1.08,11.11-2.01,16.43-2.91,13.64-2.31,26.58-4.51,39.65-8.79,1.81,17.57-7.77,32.85-18.94,48.15-9.73-3.42-39.08-26.6-39.22-34.94,0-.41-.02-1.1,2.07-1.51ZM72.04,145.91c2.62-1.82,5.02-2.84,7.17-3.09.98.73,2.02,1.38,3.11,1.96.6,2.76.82,7.77,1,11.71.37,8.33.84,18.74,3.59,28.95-3.92,3.08-6.84,7.38-8.17,12.32l-33.94-11.39c2.87-10.14,15.03-32.01,27.23-40.45ZM171.48,90.1c-4.28,1.5-11.02,4.36-16.3,6.66l-.39.17c-17.97,7.74-22.36,9.25-32.95,12.89-1.98.68-4.2,1.44-6.74,2.33-3.21-5.67-8.71-9.92-15.25-11.56,9.81-26.97,32.05-51.1,58.1-63.19,4.97,7.38,16.94,28.13,13.52,52.7ZM149.84,268.91c-48.65,0-90.61-28.97-109.31-70.45,5.45,1.11,14.9,4.12,24.87,7.3,4.44,1.42,8.96,2.86,13.35,4.2,2.7,9.93,11.79,17.25,22.56,17.25.83,0,1.66-.05,2.47-.13.16.17.33.34.49.54,12.02,14.48,29.38,26.53,44.69,37.16,1.98,1.38,3.9,2.71,5.78,4.03-1.62.07-3.26.11-4.9.11ZM174.49,262.39c.73-.83,1.3-1.49,1.69-2.04,16.11-22.58,18.62-35.7,20.28-44.38,1.1-5.76,1.75-9.15,6.21-12.24,2.97,1.6,6.36,2.51,9.96,2.51h42.65c-17.05,31.42-47.93,54.39-84.48,60.83.85-1.28,2.07-2.84,3.69-4.69Z"/>
</svg>